<?xml version="1.0" standalone="no"?>
<!DOCTYPE svg PUBLIC "-//W3C//DTD SVG 20010904//EN"
 "http://www.w3.org/TR/2001/REC-SVG-20010904/DTD/svg10.dtd">
<svg version="1.0" xmlns="http://www.w3.org/2000/svg"
 width="700.000000pt" height="700.000000pt" viewBox="0 0 700.000000 700.000000"
 preserveAspectRatio="xMidYMid meet">
<metadata>
Created by potrace 1.14, written by Peter Selinger 2001-2017
</metadata>
<g transform="translate(0.000000,700.000000) scale(0.100000,-0.100000)"
fill="#000000" stroke="none">
<path d="M228 6976 c-74 -30 -128 -74 -167 -135 -63 -98 -62 -78 -59 -731 l3
-595 29 -59 c37 -76 101 -140 174 -174 l57 -27 610 0 610 0 56 26 c76 36 129
86 170 161 l34 63 0 620 0 620 -34 63 c-41 75 -94 125 -170 161 l-56 26 -600
2 -600 3 -57 -24z m1245 -112 c57 -19 131 -95 146 -150 15 -54 15 -1124 0
-1178 -15 -53 -100 -138 -155 -154 -30 -9 -189 -12 -595 -12 -536 0 -555 1
-599 21 -55 25 -95 62 -123 114 -22 40 -22 45 -22 620 0 575 0 580 22 620 28
52 68 89 123 114 44 20 63 21 601 21 479 0 562 -2 602 -16z"/>
<path d="M459 6587 c-68 -45 -69 -49 -69 -462 0 -413 1 -417 69 -463 l35 -23
393 3 393 3 37 38 38 37 0 403 c0 386 -1 403 -20 429 -42 57 -49 58 -463 58
-377 0 -379 0 -413 -23z"/>
<path d="M5476 6975 c-74 -30 -122 -68 -164 -129 -63 -94 -63 -91 -60 -742 l3
-589 33 -67 c38 -77 92 -130 171 -167 l56 -26 610 0 610 0 67 33 c77 38 130
92 167 171 l26 56 0 610 0 610 -26 56 c-37 79 -90 133 -167 171 l-67 33 -600
2 -600 3 -59 -25z m1254 -116 c60 -27 98 -64 126 -124 l24 -50 0 -560 c0 -542
-1 -561 -21 -605 -27 -60 -64 -98 -124 -126 l-50 -24 -560 0 -560 0 -50 24
c-60 28 -97 66 -124 126 -20 44 -21 63 -21 605 0 542 1 561 21 605 27 60 64
98 124 126 l50 24 560 0 c542 0 561 -1 605 -21z"/>
<path d="M5712 6590 c-18 -11 -41 -34 -52 -52 -19 -31 -20 -51 -20 -413 0
-362 1 -382 20 -413 11 -18 34 -41 52 -52 31 -19 51 -20 413 -20 362 0 382 1
413 20 18 11 41 34 52 52 19 31 20 51 20 413 0 362 -1 382 -20 413 -11 18 -34
41 -52 52 -31 19 -51 20 -413 20 -362 0 -382 -1 -413 -20z"/>
<path d="M1885 6953 c-76 -40 -109 -99 -103 -184 5 -66 32 -112 86 -150 51
-34 153 -34 204 0 95 65 116 197 46 286 -47 60 -165 84 -233 48z"/>
<path d="M2765 6956 c-58 -26 -115 -110 -115 -168 0 -142 147 -237 276 -179
79 36 127 136 104 220 -13 50 -63 109 -107 127 -41 18 -119 17 -158 0z"/>
<path d="M3627 6949 c-70 -37 -109 -127 -93 -214 9 -47 76 -120 123 -136 53
-17 126 -7 172 26 93 64 108 202 32 289 -49 56 -162 73 -234 35z"/>
<path d="M3240 6531 c-118 -37 -177 -147 -136 -256 57 -147 256 -166 340 -32
49 79 37 176 -31 238 -15 15 -37 31 -48 37 -30 15 -97 22 -125 13z"/>
<path d="M4555 6531 c-45 -11 -69 -26 -103 -65 -67 -76 -63 -185 9 -257 113
-113 303 -47 325 114 17 122 -111 237 -231 208z"/>
<path d="M1895 6081 c-76 -35 -115 -95 -115 -177 0 -119 119 -214 233 -183 97
25 152 102 145 201 -5 70 -41 121 -108 156 -53 27 -102 28 -155 3z"/>
<path d="M2345 6088 c-100 -36 -153 -153 -114 -255 25 -68 97 -116 174 -116
165 -2 254 188 147 315 -49 58 -135 81 -207 56z"/>
<path d="M3640 6078 c-65 -34 -102 -86 -108 -151 -14 -171 170 -273 306 -170
62 47 90 145 61 220 -24 64 -109 122 -179 123 -20 0 -56 -10 -80 -22z"/>
<path d="M4532 6089 c-18 -5 -50 -27 -71 -48 -72 -72 -76 -180 -9 -257 42 -48
83 -67 144 -67 149 0 240 164 163 290 -44 71 -145 107 -227 82z"/>
<path d="M1895 5646 c-120 -55 -153 -210 -66 -310 49 -55 159 -73 230 -36 128
65 135 247 13 330 -41 29 -132 37 -177 16z"/>
<path d="M4955 5642 c-121 -58 -152 -207 -61 -302 46 -49 81 -63 152 -58 52 3
70 9 101 34 139 111 74 329 -100 341 -36 3 -64 -2 -92 -15z"/>
<path d="M570 5201 c-19 -10 -48 -35 -64 -55 -26 -31 -31 -48 -34 -104 -3 -60
0 -72 26 -113 82 -128 269 -114 333 26 58 126 -32 265 -171 265 -35 0 -68 -7
-90 -19z"/>
<path d="M3664 5196 c-149 -69 -182 -270 -63 -383 36 -34 95 -63 129 -63 18 0
20 -6 20 -60 0 -47 3 -60 15 -60 12 0 15 13 15 60 0 55 2 60 23 60 12 1 35 7
51 13 l30 13 139 -161 c77 -88 144 -164 149 -169 5 -6 12 -6 19 1 8 8 -27 55
-134 176 -80 91 -149 163 -153 159 -5 -4 10 14 34 40 23 26 42 52 42 58 0 7 6
8 18 2 9 -5 40 -12 67 -16 155 -20 175 -26 189 -60 30 -72 124 -119 196 -97
111 33 162 149 107 245 -36 64 -68 81 -147 81 -54 0 -75 -4 -97 -21 -38 -28
-73 -92 -73 -134 0 -22 -3 -30 -9 -22 -8 13 -217 56 -230 48 -4 -3 -5 27 -3
64 3 56 0 78 -18 115 -57 118 -196 167 -316 111z"/>
<path d="M5820 5201 c-19 -10 -48 -35 -64 -55 -26 -31 -31 -48 -34 -104 -3
-60 0 -72 26 -113 82 -128 269 -114 333 26 58 126 -32 265 -171 265 -35 0 -68
-7 -90 -19z"/>
<path d="M6685 5195 c-45 -31 -64 -55 -82 -100 -50 -128 63 -268 203 -252 168
19 225 234 91 341 -32 26 -49 31 -105 34 -60 3 -71 1 -107 -23z"/>
<path d="M3080 5128 c-150 -81 -105 -302 65 -316 128 -10 218 114 167 230 -41
94 -145 132 -232 86z"/>
<path d="M2616 4790 c-34 -11 -82 -54 -102 -92 -32 -61 -11 -154 45 -201 l32
-27 -57 -102 c-31 -57 -67 -122 -81 -146 l-24 -42 -31 16 c-46 24 -144 22
-193 -4 -189 -97 -178 -355 18 -437 83 -35 206 -3 262 67 l28 35 59 -18 c33
-11 68 -19 79 -19 16 0 19 -7 19 -41 0 -115 118 -196 225 -154 136 52 152 239
25 306 -42 23 -120 25 -159 4 -28 -14 -75 -63 -83 -85 -2 -6 -28 -3 -72 10
-38 11 -73 17 -79 13 -6 -4 -7 -1 -1 8 4 8 11 47 14 87 l5 73 195 89 c107 49
202 94 211 99 13 7 23 3 40 -16 53 -57 176 -83 253 -54 121 47 183 196 132
316 l-17 40 134 132 c101 98 132 135 123 142 -9 8 -47 -25 -143 -122 l-131
-132 -37 32 c-20 17 -59 37 -86 44 l-49 13 0 88 c0 72 -3 88 -15 88 -12 0 -15
-17 -15 -89 l0 -89 -33 -6 c-55 -10 -123 -60 -154 -113 -23 -40 -28 -59 -28
-118 0 -44 6 -81 16 -101 11 -20 12 -31 4 -31 -6 0 -102 -42 -214 -93 -164
-76 -204 -91 -212 -79 -5 8 -9 17 -9 20 0 3 -17 23 -37 43 -21 21 -32 36 -25
34 8 -2 44 53 92 137 l78 140 60 5 c70 6 106 28 139 86 51 88 15 190 -82 235
-43 20 -74 22 -119 9z"/>
<path d="M1490 4781 c-118 -37 -177 -147 -136 -256 57 -147 256 -166 340 -32
49 79 37 176 -31 238 -15 15 -37 31 -48 37 -30 15 -97 22 -125 13z"/>
<path d="M5885 4785 c-5 -2 -22 -6 -37 -9 -37 -8 -98 -63 -114 -103 -23 -53
-18 -130 11 -179 29 -49 108 -94 164 -94 49 1 111 30 143 68 99 118 32 292
-122 316 -19 3 -39 3 -45 1z"/>
<path d="M4776 4690 c-38 -12 -85 -57 -102 -97 -56 -130 80 -272 213 -222 72
27 122 113 108 188 -18 96 -125 161 -219 131z"/>
<path d="M3695 4604 c-73 -38 -99 -84 -93 -164 5 -69 35 -115 92 -141 54 -25
93 -24 146 4 52 26 78 59 90 113 30 132 -117 250 -235 188z"/>
<path d="M4297 4506 c-59 -22 -103 -61 -131 -118 -80 -160 31 -340 209 -340
73 0 126 23 177 80 45 50 61 99 56 172 -8 118 -98 207 -215 216 -35 3 -72 -1
-96 -10z"/>
<path d="M4628 4417 c-24 -14 -35 -26 -30 -34 6 -9 18 -6 46 10 37 21 48 38
29 44 -4 2 -25 -7 -45 -20z"/>
<path d="M140 4328 c-65 -34 -102 -86 -108 -151 -14 -171 170 -273 306 -170
62 47 90 145 61 220 -24 64 -109 122 -179 123 -20 0 -56 -10 -80 -22z"/>
<path d="M1032 4339 c-18 -5 -50 -27 -71 -48 -72 -72 -76 -180 -9 -257 42 -48
83 -67 144 -67 149 0 240 164 163 290 -44 71 -145 107 -227 82z"/>
<path d="M5390 4328 c-65 -34 -102 -86 -108 -151 -14 -171 170 -273 306 -170
62 47 90 145 61 220 -24 64 -109 122 -179 123 -20 0 -56 -10 -80 -22z"/>
<path d="M6282 4339 c-18 -5 -50 -27 -71 -48 -72 -72 -76 -180 -9 -257 42 -48
83 -67 144 -67 149 0 240 164 163 290 -44 71 -145 107 -227 82z"/>
<path d="M6705 4332 c-188 -88 -127 -365 80 -365 57 0 98 18 136 60 40 42 51
70 51 128 1 66 -35 133 -87 165 -49 30 -129 36 -180 12z"/>
<path d="M145 3897 c-44 -20 -103 -90 -111 -132 -24 -127 61 -235 186 -235 78
0 137 35 171 102 41 81 12 196 -63 246 -47 31 -136 40 -183 19z"/>
<path d="M2390 3745 c0 -11 173 -350 181 -356 5 -3 -5 -18 -22 -35 -36 -34
-69 -94 -69 -126 0 -19 -1 -20 -12 -6 -18 22 -120 51 -129 36 -4 -6 -5 10 -2
34 10 89 -41 165 -127 188 -78 21 -175 -31 -201 -107 -25 -77 12 -172 81 -208
37 -19 123 -19 160 0 15 8 39 29 53 46 l24 31 71 -21 70 -21 7 -43 c10 -55 36
-106 76 -145 l33 -32 -22 -30 c-12 -16 -32 -44 -44 -60 -15 -21 -19 -33 -11
-41 7 -7 24 9 58 55 44 59 50 64 72 55 13 -5 39 -9 58 -9 18 0 35 -6 37 -12 3
-7 20 -102 39 -210 23 -135 38 -198 46 -198 7 0 13 7 13 16 0 14 -54 331 -65
381 -4 17 1 24 28 32 86 29 157 131 157 226 0 54 -28 125 -63 164 -55 60 -187
89 -261 58 l-28 -12 -91 177 c-51 98 -97 178 -104 178 -7 0 -13 -2 -13 -5z"/>
<path d="M570 3451 c-19 -10 -48 -35 -64 -55 -26 -31 -31 -48 -34 -104 -3 -60
0 -72 26 -113 82 -128 269 -114 333 26 58 126 -32 265 -171 265 -35 0 -68 -7
-90 -19z"/>
<path d="M1015 3456 c-43 -19 -92 -78 -106 -128 -31 -115 65 -238 186 -238
101 0 195 92 195 190 0 65 -58 152 -117 176 -41 17 -119 17 -158 0z"/>
<path d="M5820 3451 c-19 -10 -48 -35 -64 -55 -26 -31 -31 -48 -34 -104 -3
-60 0 -72 26 -113 82 -128 269 -114 333 26 58 126 -32 265 -171 265 -35 0 -68
-7 -90 -19z"/>
<path d="M6265 3456 c-43 -19 -92 -78 -106 -128 -31 -115 65 -238 186 -238
101 0 195 92 195 190 0 65 -58 152 -117 176 -41 17 -119 17 -158 0z"/>
<path d="M1490 3031 c-118 -37 -177 -147 -136 -256 57 -147 256 -166 340 -32
49 79 37 176 -31 238 -15 15 -37 31 -48 37 -30 15 -97 22 -125 13z"/>
<path d="M4337 2968 c-99 -21 -157 -120 -124 -214 9 -27 10 -41 3 -41 -6 0
-59 -28 -118 -63 -73 -42 -105 -66 -101 -76 5 -14 3 -15 170 82 69 41 72 42
89 23 26 -29 98 -52 144 -46 77 10 149 93 150 171 0 41 -36 112 -69 136 -38
26 -98 38 -144 28z"/>
<path d="M2305 2886 c-71 -31 -115 -122 -95 -196 14 -52 61 -106 107 -121 78
-25 172 12 209 83 23 45 15 134 -16 177 -42 61 -137 87 -205 57z"/>
<path d="M3110 2889 c-62 -25 -100 -85 -100 -159 0 -58 17 -98 57 -132 16 -12
26 -22 24 -21 -7 5 -70 -91 -65 -99 10 -16 22 -7 55 42 32 46 36 49 67 44 80
-15 157 31 188 111 51 135 -90 268 -226 214z"/>
<path d="M3659 2697 c-83 -44 -137 -145 -125 -235 27 -198 261 -278 401 -137
25 24 47 55 51 69 3 15 13 26 23 26 9 0 142 -7 296 -15 154 -8 296 -15 315
-15 34 0 37 -3 47 -43 23 -83 81 -129 163 -129 129 0 209 127 150 242 -41 81
-144 114 -227 71 -40 -20 -83 -74 -83 -103 0 -11 -14 -13 -67 -10 -498 25
-589 28 -595 18 -4 -6 -8 17 -8 50 0 89 -38 158 -110 202 -47 27 -63 32 -120
32 -51 0 -78 -6 -111 -23z"/>
<path d="M140 2578 c-65 -34 -102 -86 -108 -151 -14 -171 170 -273 306 -170
62 47 90 145 61 220 -24 64 -109 122 -179 123 -20 0 -56 -10 -80 -22z"/>
<path d="M595 2588 c-100 -36 -153 -153 -114 -255 25 -68 97 -116 174 -116
165 -2 254 188 147 315 -49 58 -135 81 -207 56z"/>
<path d="M5840 2584 c-77 -33 -120 -96 -120 -174 0 -65 18 -108 63 -147 123
-108 317 -20 317 142 0 134 -141 231 -260 179z"/>
<path d="M6717 2585 c-50 -17 -85 -50 -108 -100 -90 -196 164 -365 313 -208
34 36 48 73 48 128 0 81 -39 141 -115 176 -47 22 -86 23 -138 4z"/>
<path d="M2800 2515 c-100 -32 -162 -118 -162 -226 0 -113 74 -205 185 -229
70 -16 151 6 205 55 l38 33 164 -74 c91 -40 171 -72 178 -69 10 4 11 -4 7 -29
-10 -53 10 -110 54 -149 112 -101 281 -29 281 120 0 65 -18 103 -65 139 -70
53 -167 42 -228 -25 l-35 -39 -163 74 c-90 41 -170 72 -177 69 -9 -3 -9 2 2
23 7 15 17 41 20 57 4 19 13 31 24 32 19 2 388 90 411 98 9 4 11 9 5 15 -7 7
-82 -7 -217 -40 -114 -27 -209 -50 -211 -50 -3 0 -8 15 -11 33 -31 140 -172
225 -305 182z"/>
<path d="M3936 2313 c-12 -12 -5 -21 69 -83 l75 -63 -6 -52 c-11 -92 26 -155
110 -190 55 -23 117 -13 162 27 46 41 64 77 64 133 0 55 -18 93 -60 129 -65
54 -155 54 -220 0 l-31 -26 -67 59 c-77 68 -87 75 -96 66z"/>
<path d="M591 2149 c-84 -34 -125 -101 -119 -195 3 -52 9 -70 34 -100 42 -52
88 -74 154 -74 209 0 261 284 68 365 -41 17 -100 19 -137 4z"/>
<path d="M6263 2141 c-50 -23 -99 -86 -108 -140 -9 -53 10 -114 48 -158 39
-44 82 -63 142 -63 60 0 103 19 142 63 29 33 53 90 53 127 0 34 -22 91 -47
121 -55 65 -150 86 -230 50z"/>
<path d="M249 1735 c-104 -33 -189 -115 -228 -221 -21 -55 -21 -67 -19 -653
l3 -596 33 -67 c38 -77 92 -130 171 -167 l56 -26 610 0 610 0 67 33 c77 38
130 92 167 171 l26 56 0 610 0 610 -26 56 c-37 79 -90 133 -167 171 l-67 33
-595 2 c-494 2 -603 -1 -641 -12z m1231 -126 c60 -27 98 -64 126 -124 l24 -50
0 -560 c0 -542 -1 -561 -21 -605 -27 -60 -64 -98 -124 -126 l-50 -24 -560 0
-560 0 -50 24 c-60 28 -97 66 -124 126 -20 44 -21 63 -21 599 0 406 3 565 12
595 15 51 99 137 148 153 24 7 217 11 595 12 543 1 561 0 605 -20z"/>
<path d="M462 1340 c-18 -11 -41 -34 -52 -52 -19 -31 -20 -51 -20 -413 0 -362
1 -382 20 -413 11 -18 34 -41 52 -52 31 -19 51 -20 413 -20 362 0 382 1 413
20 18 11 41 34 52 52 19 31 20 51 20 413 0 362 -1 382 -20 413 -11 18 -34 41
-52 52 -31 19 -51 20 -413 20 -362 0 -382 -1 -413 -20z"/>
<path d="M1885 1703 c-76 -40 -109 -99 -103 -184 5 -66 32 -112 86 -150 51
-34 153 -34 204 0 95 65 116 197 46 286 -47 60 -165 84 -233 48z"/>
<path d="M2320 1701 c-19 -10 -48 -35 -64 -55 -26 -31 -31 -48 -34 -104 -3
-60 0 -72 26 -113 82 -128 269 -114 333 26 58 126 -32 265 -171 265 -35 0 -68
-7 -90 -19z"/>
<path d="M5820 1701 c-19 -10 -48 -35 -64 -55 -26 -31 -31 -48 -34 -104 -3
-60 0 -72 26 -113 82 -128 269 -114 333 26 58 126 -32 265 -171 265 -35 0 -68
-7 -90 -19z"/>
<path d="M3265 1285 c-5 -2 -22 -6 -37 -9 -35 -8 -94 -59 -115 -100 -23 -45
-21 -123 5 -173 43 -83 148 -123 237 -89 147 57 166 262 32 340 -40 24 -101
39 -122 31z"/>
<path d="M4110 1278 c-175 -50 -187 -292 -18 -363 74 -30 157 -8 215 58 75 86
49 230 -53 289 -39 22 -101 29 -144 16z"/>
<path d="M4994 1280 c-94 -22 -163 -117 -150 -207 22 -161 212 -227 325 -114
72 72 76 181 9 257 -50 57 -118 80 -184 64z"/>
<path d="M5885 1285 c-5 -2 -22 -6 -37 -9 -37 -8 -98 -63 -114 -103 -23 -53
-18 -130 11 -179 29 -49 108 -94 164 -94 49 1 111 30 143 68 99 118 32 292
-122 316 -19 3 -39 3 -45 1z"/>
<path d="M6305 1281 c-45 -11 -69 -26 -103 -65 -67 -76 -63 -185 9 -257 113
-113 303 -47 325 114 17 122 -111 237 -231 208z"/>
<path d="M1895 831 c-76 -35 -115 -95 -115 -177 0 -119 119 -214 233 -183 97
25 152 102 145 201 -5 70 -41 121 -108 156 -53 27 -102 28 -155 3z"/>
<path d="M2775 831 c-76 -35 -115 -95 -115 -176 0 -88 51 -156 135 -181 193
-56 330 186 183 323 -56 52 -135 66 -203 34z"/>
<path d="M4085 831 c-167 -77 -146 -313 33 -361 35 -9 53 -8 97 5 165 48 185
273 31 350 -59 30 -106 31 -161 6z"/>
<path d="M5390 828 c-65 -34 -102 -86 -108 -151 -14 -171 170 -273 306 -170
62 47 90 145 61 220 -24 64 -109 122 -179 123 -20 0 -56 -10 -80 -22z"/>
<path d="M2761 388 c-136 -67 -136 -269 1 -339 82 -42 194 -14 244 60 50 76
44 168 -14 233 -64 71 -147 88 -231 46z"/>
<path d="M3645 391 c-69 -31 -115 -105 -115 -181 1 -60 63 -147 123 -169 36
-14 108 -14 144 0 84 32 136 134 112 223 -31 118 -154 177 -264 127z"/>
<path d="M5395 397 c-44 -20 -103 -90 -111 -132 -24 -127 61 -235 186 -235 78
0 137 35 171 102 41 81 12 196 -63 246 -47 31 -136 40 -183 19z"/>
<path d="M6263 391 c-50 -23 -99 -86 -108 -140 -13 -80 39 -177 112 -207 41
-18 115 -18 156 0 43 17 93 76 106 123 13 47 13 59 1 105 -31 110 -159 167
-267 119z"/>
<path d="M6705 393 c-103 -54 -142 -161 -94 -261 54 -110 207 -137 303 -53 62
54 75 168 27 243 -49 77 -160 111 -236 71z"/>
</g>
</svg>
